<svg width="30" height="30" viewBox="0 0 30 30" fill="none" xmlns="http://www.w3.org/2000/svg">
<path d="M25.7812 3.28125H4.21875C3.7002 3.28125 3.28125 3.7002 3.28125 4.21875V25.7812C3.28125 26.2998 3.7002 26.7188 4.21875 26.7188H25.7812C26.2998 26.7188 26.7188 26.2998 26.7188 25.7812V4.21875C26.7188 3.7002 26.2998 3.28125 25.7812 3.28125ZM24.8438 24.8438H19.4502V17.6426H22.4971L22.9541 14.1064H19.4502V11.8477C19.4502 10.8223 19.7344 10.125 21.2021 10.125H23.0742V6.96094C22.749 6.91699 21.6387 6.82031 20.3438 6.82031C17.6426 6.82031 15.7939 8.46973 15.7939 11.4961V14.1035H12.7412V17.6396H15.7969V24.8438H5.15625V5.15625H24.8438V24.8438Z" fill="url(#paint0_linear_14_22)"/>
<defs>
<linearGradient id="paint0_linear_14_22" x1="15" y1="3.28125" x2="15" y2="26.7188" gradientUnits="userSpaceOnUse">
<stop stop-color="#02204D"/>
<stop offset="1" stop-color="#007279"/>
</linearGradient>
</defs>
</svg>
