<svg width="30" height="30" viewBox="0 0 30 30" fill="none" xmlns="http://www.w3.org/2000/svg">
<path d="M3.66669 13.6666C3.66669 8.95288 3.66669 6.59538 5.13169 5.13163C6.59669 3.66788 8.95294 3.66663 13.6667 3.66663H16.1667C20.8804 3.66663 23.2379 3.66663 24.7017 5.13163C26.1654 6.59663 26.1667 8.95288 26.1667 13.6666V16.1666C26.1667 20.8804 26.1667 23.2379 24.7017 24.7016C23.2367 26.1654 20.8804 26.1666 16.1667 26.1666H13.6667C8.95294 26.1666 6.59544 26.1666 5.13169 24.7016C3.66794 23.2366 3.66669 20.8804 3.66669 16.1666V13.6666Z" stroke="url(#paint0_linear_14_36)" stroke-width="2"/>
<path d="M21.9167 9.29163C21.9167 10.051 21.3011 10.6666 20.5417 10.6666C19.7823 10.6666 19.1667 10.051 19.1667 9.29163C19.1667 8.53223 19.7823 7.91663 20.5417 7.91663C21.3011 7.91663 21.9167 8.53223 21.9167 9.29163Z" stroke="url(#paint1_linear_14_36)"/>
<path d="M14.9167 18.6666C16.9878 18.6666 18.6667 16.9877 18.6667 14.9166C18.6667 12.8456 16.9878 11.1666 14.9167 11.1666C12.8456 11.1666 11.1667 12.8456 11.1667 14.9166C11.1667 16.9877 12.8456 18.6666 14.9167 18.6666Z" stroke="url(#paint2_linear_14_36)" stroke-width="2"/>
<defs>
<linearGradient id="paint0_linear_14_36" x1="14.9167" y1="3.66663" x2="14.9167" y2="26.1666" gradientUnits="userSpaceOnUse">
<stop stop-color="#02204D"/>
<stop offset="1" stop-color="#007279"/>
</linearGradient>
<linearGradient id="paint1_linear_14_36" x1="20.5417" y1="7.41663" x2="20.5417" y2="11.1666" gradientUnits="userSpaceOnUse">
<stop stop-color="#02204D"/>
<stop offset="1" stop-color="#007279"/>
</linearGradient>
<linearGradient id="paint2_linear_14_36" x1="14.9167" y1="11.1666" x2="14.9167" y2="18.6666" gradientUnits="userSpaceOnUse">
<stop stop-color="#02204D"/>
<stop offset="1" stop-color="#007279"/>
</linearGradient>
</defs>
</svg>
