<svg width="25" height="25" viewBox="0 0 25 25" fill="none" xmlns="http://www.w3.org/2000/svg">
<path d="M24.6582 21.6141L19.79 16.7464C19.5703 16.5267 19.2725 16.4046 18.96 16.4046H18.1641C19.5117 14.6812 20.3125 12.5134 20.3125 10.1553C20.3125 4.54545 15.7666 0 10.1562 0C4.5459 0 0 4.54545 0 10.1553C0 15.7651 4.5459 20.3105 10.1562 20.3105C12.5146 20.3105 14.6826 19.5098 16.4062 18.1623V18.9581C16.4062 19.2706 16.5283 19.5684 16.748 19.7881L21.6162 24.6558C22.0752 25.1147 22.8174 25.1147 23.2715 24.6558L24.6533 23.2741C25.1123 22.8152 25.1123 22.073 24.6582 21.6141ZM10.1562 16.4046C6.7041 16.4046 3.90625 13.612 3.90625 10.1553C3.90625 6.70345 6.69922 3.90587 10.1562 3.90587C13.6084 3.90587 16.4062 6.69856 16.4062 10.1553C16.4062 13.6071 13.6133 16.4046 10.1562 16.4046Z" fill="#02204D" class="fill-current text-blue-900 hover:text-blue-600"/>
</svg>
